<svg width="110" height="120" viewBox="0 0 110 120" fill="none" xmlns="http://www.w3.org/2000/svg">
<g id="clouds-cloud-svgrepo-com 1" clip-path="url(#clip0_77_2)">
<g id="SVGRepo_iconCarrier">
<g id="Group">
<g id="Group_2">
<path id="Vector" d="M73.988 33.6963C54.7346 13.129 21.9935 24.3225 17.1499 53.3671C10.3074 54.4447 4.44449 59.3307 1.67731 66.2755C1.67387 66.2837 1.67044 66.2919 1.66721 66.3006C-4.06631 80.7385 5.70283 96.8236 20.0385 96.8236H80.6816C96.8477 96.8236 110 82.4762 110 64.8404C110 44.3533 92.4501 28.9879 73.988 33.6963ZM80.6816 89.3248H20.0387C5.16164 89.3248 1.87711 66.2945 16.0181 61.3274C19.1877 60.2375 25.2585 59.6052 31.9981 66.4583C33.3869 67.8702 35.5615 67.7865 36.8558 66.2722C38.15 64.7572 38.0735 62.3849 36.6852 60.973C32.833 57.0561 28.5059 54.5675 24.1203 53.6012C28.8541 30.3801 55.7826 22.6987 70.3646 40.4048C71.2646 41.4972 72.6665 41.9167 73.951 41.4759C88.404 36.5266 103.126 48.3604 103.126 64.8406C103.126 78.3411 93.0575 89.3248 80.6816 89.3248Z" fill="#7284FF"/>
</g>
</g>
</g>
</g>
<defs>
<clipPath id="clip0_77_2">
<rect width="110" height="120" fill="white"/>
</clipPath>
</defs>
</svg>
