<svg width="99" height="87" viewBox="0 0 99 87" fill="none" xmlns="http://www.w3.org/2000/svg">
<g id="wind-svgrepo-com 1" clip-path="url(#clip0_75_2)">
<g id="SVGRepo_iconCarrier">
<g id="Group">
<g id="Group_2">
<path id="Vector" d="M81.9144 48.6719H1.03176C-0.0905849 48.6719 -1 47.8724 -1 46.8864C-1 45.9003 -0.0905849 45.1009 1.03176 45.1009H81.5216C81.6487 45.079 81.7801 45.0676 81.9144 45.0676C88.5434 45.0676 93.9365 40.3282 93.9365 34.5027C93.9365 28.6773 88.5434 23.9377 81.9144 23.9377C75.2855 23.9377 69.8924 28.6771 69.8924 34.5025C69.8924 35.4886 68.983 36.288 67.8606 36.288C66.7383 36.288 65.8289 35.4886 65.8289 34.5025C65.8289 26.708 73.0449 20.3667 81.9144 20.3667C90.784 20.3667 98 26.708 98 34.5025C98 42.1739 91.0105 48.4376 82.3341 48.6335C82.1986 48.6588 82.0586 48.6719 81.9144 48.6719Z" fill="#7284FF" stroke="#7284FF" stroke-width="2.1891"/>
</g>
<g id="Group_3">
<path id="Vector_2" d="M40.2536 36.3049H1.03176C-0.0905848 36.3049 -1 35.5055 -1 34.5194C-1 33.5334 -0.0905848 32.734 1.03176 32.734H39.8608C39.9879 32.7121 40.1193 32.7006 40.2536 32.7006C46.8826 32.7006 52.2757 27.9612 52.2757 22.1358C52.2757 16.3104 46.8826 11.571 40.2536 11.571C33.6244 11.571 28.2313 16.3104 28.2313 22.1358C28.2313 23.1219 27.3219 23.9213 26.1996 23.9213C25.0772 23.9213 24.1678 23.1219 24.1678 22.1358C24.1678 14.3413 31.3841 8 40.2536 8C49.1232 8 56.3392 14.3413 56.3392 22.1358C56.3392 29.8072 49.3497 36.0709 40.6733 36.2668C40.5378 36.2916 40.3975 36.3049 40.2536 36.3049Z" fill="#7284FF" stroke="#7284FF" stroke-width="2.1891"/>
</g>
<g id="Group_4">
<path id="Vector_3" d="M65.1503 86.1526C56.2807 86.1526 49.0644 79.8113 49.0644 72.0168C49.0644 71.0307 49.9738 70.2313 51.0962 70.2313C52.2185 70.2313 53.1279 71.0307 53.1279 72.0168C53.1279 77.8422 58.521 82.5816 65.1503 82.5816C71.7792 82.5816 77.1723 77.8422 77.1723 72.0168C77.1723 66.1913 71.7792 61.452 65.1503 61.452H1.03176C-0.0905849 61.452 -1 60.6525 -1 59.6665C-1 58.6804 -0.0905849 57.881 1.03176 57.881H65.1503C74.0198 57.881 81.2358 64.2223 81.2358 72.0168C81.2358 79.8113 74.0198 86.1526 65.1503 86.1526Z" fill="#7284FF" stroke="#7284FF" stroke-width="2.1891"/>
</g>
</g>
</g>
</g>
<defs>
<clipPath id="clip0_75_2">
<rect width="99" height="87" fill="white"/>
</clipPath>
</defs>
</svg>
